<svg version="1.1" preserveAspectRatio="none" xmlns="http://www.w3.org/2000/svg" width="500" height="500" viewBox="0 0 500 500"><rect width="100%" height="100%" fill="#121212" fill-opacity="1"/><svg viewBox="746.8671 674.5684 485.222 146.4" width="333" height="100.47194892234894" x="83.5px" y="199.764px" xmlns="http://www.w3.org/2000/svg" xmlns:xlink="http://www.w3.org/1999/xlink" preserveAspectRatio="none"><defs></defs><style>.a6izo4zJpcolor {fill:#F5F5F5;fill-opacity:1;}.companyName {fill:#F5F5F5;fill-opacity:1;}.icon3 {fill:#00DCFB;fill-opacity:1;}.icon3-str {stroke:#00DCFB;stroke-opacity:1;}.shapeStroke-str {stroke:#F5F5F5;stroke-opacity:1;}</style><g opacity="1" transform="rotate(0 746.8671 772.5684)">
<svg width="485.222" height="6" x="746.8671" y="772.5684" version="1.1" preserveAspectRatio="none" viewBox="0 0 485.222 6">
  <defs><rect x="0" y="0" width="485.222" height="6" rx="4%" ry="4%" id="id-UPl23ini1680181416733"></rect></defs><use class="companyName shapeStroke-str" style="stroke-width:0;" xlink:href="#id-UPl23ini1680181416733"></use>
</svg>
</g><g opacity="1" transform="rotate(0 746.8671 794.5684)">
<svg width="485.222" height="26.4" x="746.8671" y="794.5684" version="1.1" preserveAspectRatio="none" viewBox="1.8 -28.56 671.96 36.56">
  <g transform="matrix(1 0 0 1 0 0)" class="a6izo4zJpcolor"><path id="id-6izo4zJp26" d="M18.84-18.48L18.84-19.92Q18.84-21.28 18.30-22.32Q17.76-23.36 16.84-24.04Q15.92-24.72 14.72-25.08Q13.52-25.44 12.20-25.44L12.20-25.44Q11.04-25.44 10-25.14Q8.96-24.84 8.14-24.28Q7.32-23.72 6.84-22.90Q6.36-22.08 6.36-21L6.36-21L6.36-20.76Q6.36-19.60 6.84-18.78Q7.32-17.96 8.26-17.38Q9.20-16.80 10.60-16.42Q12-16.04 13.88-15.76L13.88-15.76Q18.28-15.08 20.36-13.18Q22.44-11.28 22.44-8.08L22.44-8.08L22.44-7.60Q22.44-5.80 21.82-4.30Q21.20-2.80 19.98-1.72Q18.76-0.64 16.96-0.04Q15.16 0.56 12.80 0.56L12.80 0.56Q10.12 0.56 8.06-0.22Q6-1 4.62-2.38Q3.24-3.76 2.52-5.62Q1.80-7.48 1.80-9.68L1.80-9.68L1.80-10.88L5.16-10.88L5.16-9.92Q5.16-6.24 7.18-4.40Q9.20-2.56 12.80-2.56L12.80-2.56Q15.92-2.56 17.50-3.94Q19.08-5.32 19.08-7.60L19.08-7.60L19.08-7.84Q19.08-10.04 17.46-11.20Q15.84-12.36 12.20-12.88L12.20-12.88Q10.08-13.16 8.38-13.74Q6.68-14.32 5.48-15.26Q4.28-16.20 3.64-17.52Q3-18.84 3-20.64L3-20.64L3-21.12Q3-22.76 3.68-24.12Q4.36-25.48 5.58-26.48Q6.80-27.48 8.50-28.02Q10.20-28.56 12.24-28.56L12.24-28.56Q14.60-28.56 16.46-27.88Q18.32-27.20 19.60-26.06Q20.88-24.92 21.54-23.38Q22.20-21.84 22.20-20.16L22.20-20.16L22.20-18.48L18.84-18.48Z M32.68-10.32L32.68 0L29.56 0L29.56-28L32.68-28L32.68-16.24L33.16-16.24Q34.08-18.16 35.74-19.28Q37.40-20.40 39.80-20.40L39.80-20.40Q43.04-20.40 45.06-18.26Q47.08-16.12 47.08-11.84L47.08-11.84L47.08 0L43.96 0L43.96-11.20Q43.96-14.32 42.56-15.88Q41.16-17.44 38.76-17.44L38.76-17.44Q35.92-17.44 34.30-15.50Q32.68-13.56 32.68-10.32L32.68-10.32Z M74.36-10.16L74.36-9.68Q74.36-7.20 73.54-5.30Q72.72-3.40 71.36-2.10Q70-0.80 68.18-0.12Q66.36 0.56 64.40 0.56L64.40 0.56Q62.40 0.56 60.60-0.12Q58.80-0.80 57.44-2.10Q56.08-3.40 55.26-5.30Q54.44-7.20 54.44-9.68L54.44-9.68L54.44-10.16Q54.44-12.60 55.26-14.50Q56.08-16.40 57.46-17.72Q58.84-19.04 60.64-19.72Q62.44-20.40 64.40-20.40L64.40-20.40Q66.36-20.40 68.16-19.72Q69.96-19.04 71.34-17.72Q72.72-16.40 73.54-14.50Q74.36-12.60 74.36-10.16L74.36-10.16ZM64.40-2.40L64.40-2.40Q65.84-2.40 67.06-2.90Q68.28-3.40 69.20-4.36Q70.12-5.32 70.64-6.66Q71.16-8 71.16-9.68L71.16-9.68L71.16-10.16Q71.16-11.76 70.64-13.10Q70.12-14.44 69.20-15.40Q68.28-16.36 67.04-16.90Q65.80-17.44 64.40-17.44L64.40-17.44Q63-17.44 61.76-16.90Q60.52-16.36 59.60-15.40Q58.68-14.44 58.16-13.10Q57.64-11.76 57.64-10.16L57.64-10.16L57.64-9.68Q57.64-8 58.16-6.66Q58.68-5.32 59.60-4.36Q60.52-3.40 61.74-2.90Q62.96-2.40 64.40-2.40Z M84.12-3.04L84.12 8L81 8L81-19.84L84.12-19.84L84.12-16.72L84.60-16.72Q85.64-18.52 87.48-19.46Q89.32-20.40 91.48-20.40L91.48-20.40Q93.32-20.40 94.96-19.72Q96.60-19.04 97.86-17.76Q99.12-16.48 99.86-14.60Q100.60-12.72 100.60-10.32L100.60-10.32L100.60-9.52Q100.60-7.08 99.88-5.20Q99.16-3.32 97.90-2.04Q96.64-0.76 94.96-0.10Q93.28 0.56 91.40 0.56L91.40 0.56Q90.44 0.56 89.44 0.34Q88.44 0.12 87.54-0.34Q86.64-0.80 85.88-1.46Q85.12-2.12 84.60-3.04L84.60-3.04L84.12-3.04ZM90.76-2.40L90.76-2.40Q92.20-2.40 93.40-2.90Q94.60-3.40 95.50-4.32Q96.40-5.24 96.90-6.56Q97.40-7.88 97.40-9.52L97.40-9.52L97.40-10.32Q97.40-11.92 96.90-13.22Q96.40-14.52 95.50-15.46Q94.60-16.40 93.38-16.92Q92.16-17.44 90.76-17.44L90.76-17.44Q89.36-17.44 88.16-16.90Q86.96-16.36 86.06-15.40Q85.16-14.44 84.64-13.10Q84.12-11.76 84.12-10.16L84.12-10.16L84.12-9.68Q84.12-8.04 84.64-6.70Q85.16-5.36 86.06-4.40Q86.96-3.44 88.16-2.92Q89.36-2.40 90.76-2.40Z M138.00-14.72L138.00-14.72Q138.00-13.28 139.22-12.52Q140.44-11.76 143.68-11.52L143.68-11.52Q147.16-11.24 148.98-9.86Q150.80-8.48 150.80-5.84L150.80-5.84L150.80-5.60Q150.80-4.16 150.22-3.02Q149.64-1.88 148.62-1.08Q147.60-0.28 146.14 0.14Q144.68 0.56 142.96 0.56L142.96 0.56Q140.64 0.56 138.98-0.06Q137.32-0.68 136.22-1.70Q135.12-2.72 134.56-4.02Q134.00-5.32 133.92-6.64L133.92-6.64L136.88-7.36Q137.08-5.08 138.64-3.70Q140.20-2.32 142.80-2.32L142.80-2.32Q145.00-2.32 146.34-3.18Q147.68-4.04 147.68-5.60L147.68-5.60Q147.68-7.28 146.36-8Q145.04-8.72 142.08-8.92L142.08-8.92Q138.64-9.16 136.80-10.52Q134.96-11.88 134.96-14.48L134.96-14.48L134.96-14.72Q134.96-16.12 135.56-17.18Q136.16-18.24 137.18-18.96Q138.20-19.68 139.48-20.04Q140.76-20.40 142.16-20.40L142.16-20.40Q144.12-20.40 145.60-19.86Q147.08-19.32 148.08-18.46Q149.08-17.60 149.62-16.48Q150.16-15.36 150.32-14.24L150.32-14.24L147.36-13.52Q147.16-15.44 145.82-16.52Q144.48-17.60 142.32-17.60L142.32-17.60Q141.48-17.60 140.70-17.42Q139.92-17.24 139.32-16.88Q138.72-16.52 138.36-15.98Q138.00-15.44 138.00-14.72Z M179.04-15.28L179.04 0L175.92 0L175.92-14.24Q175.92-15.64 175.28-16.54Q174.64-17.44 173.24-17.44L173.24-17.44Q171.92-17.44 171.10-16.46Q170.28-15.48 170.28-13.44L170.28-13.44L170.28 0L167.16 0L167.16-14.40Q167.16-15.72 166.44-16.58Q165.72-17.44 164.52-17.44L164.52-17.44Q163.08-17.44 162.30-16.40Q161.52-15.36 161.52-13.68L161.52-13.68L161.52 0L158.40 0L158.40-19.84L161.52-19.84L161.52-17.68L162.00-17.68Q162.52-19.08 163.52-19.74Q164.52-20.40 165.88-20.40L165.88-20.40Q167.32-20.40 168.26-19.64Q169.20-18.88 169.56-17.68L169.56-17.68L170.04-17.68Q171.40-20.40 174.36-20.40L174.36-20.40Q176.60-20.40 177.82-18.98Q179.04-17.56 179.04-15.28L179.04-15.28Z M200.44-3.12L200.44-3.36L199.96-3.36Q199.00-1.36 197.30-0.40Q195.60 0.56 193.72 0.56L193.72 0.56Q191.76 0.56 190.08-0.10Q188.40-0.76 187.14-2.06Q185.88-3.36 185.16-5.24Q184.44-7.12 184.44-9.60L184.44-9.60L184.44-10.24Q184.44-12.68 185.16-14.56Q185.88-16.44 187.14-17.74Q188.40-19.04 190.08-19.72Q191.76-20.40 193.64-20.40L193.64-20.40Q195.68-20.40 197.34-19.50Q199.00-18.60 199.96-16.72L199.96-16.72L200.44-16.72L200.44-19.84L203.56-19.84L203.56-4.08Q203.56-2.88 204.64-2.88L204.64-2.88L205.64-2.88L205.64 0L203.52 0Q202.16 0 201.30-0.88Q200.44-1.76 200.44-3.12L200.44-3.12ZM194.04-2.40L194.04-2.40Q195.44-2.40 196.62-2.92Q197.80-3.44 198.64-4.40Q199.48-5.36 199.96-6.70Q200.44-8.04 200.44-9.68L200.44-9.68L200.44-10.16Q200.44-11.76 199.96-13.10Q199.48-14.44 198.62-15.40Q197.76-16.36 196.58-16.90Q195.40-17.44 194.04-17.44L194.04-17.44Q192.64-17.44 191.48-16.92Q190.32-16.40 189.46-15.46Q188.60-14.52 188.12-13.18Q187.64-11.84 187.64-10.24L187.64-10.24L187.64-9.60Q187.64-6.20 189.42-4.30Q191.20-2.40 194.04-2.40Z M211.00-16.96L211.00-19.84L218.20-19.84L218.20-17.20L218.68-17.20Q219.44-18.84 220.84-19.62Q222.24-20.40 224.04-20.40L224.04-20.40Q227.04-20.40 228.88-18.44Q230.72-16.48 230.84-12.72L230.84-12.72L227.56-12.24Q227.56-15 226.24-16.22Q224.92-17.44 223.00-17.44L223.00-17.44Q221.76-17.44 220.86-16.96Q219.96-16.48 219.36-15.64Q218.76-14.80 218.48-13.68Q218.20-12.56 218.20-11.28L218.20-11.28L218.20-2.88L223.24-2.88L223.24 0L210.52 0L210.52-2.88L215.08-2.88L215.08-16.96L211.00-16.96Z M237.52-16.96L237.52-19.84L243.76-19.84L243.76-28L246.88-28L246.88-19.84L254.56-19.84L254.56-16.96L246.88-16.96L246.88-4.08Q246.88-2.88 247.96-2.88L247.96-2.88L253.60-2.88L253.60 0L246.84 0Q245.48 0 244.62-0.88Q243.76-1.76 243.76-3.12L243.76-3.12L243.76-16.96L237.52-16.96Z M270.24-2.24L270.24-2.24Q270.24-3.40 271.06-4.22Q271.88-5.04 273.04-5.04L273.04-5.04Q274.20-5.04 275.02-4.22Q275.84-3.40 275.84-2.24L275.84-2.24L275.84 1.68Q275.84 3.04 274.98 3.92Q274.12 4.80 272.76 4.80L272.76 4.80L270.72 4.80L270.72 2.64L272.60 2.64Q273.68 2.64 273.68 1.44L273.68 1.44L273.68 0.44Q273.36 0.56 273.00 0.56L273.00 0.56Q271.88 0.56 271.06-0.26Q270.24-1.08 270.24-2.24Z M320.56-14.72L320.56-14.72Q320.56-13.28 321.78-12.52Q323.00-11.76 326.24-11.52L326.24-11.52Q329.72-11.24 331.54-9.86Q333.36-8.48 333.36-5.84L333.36-5.84L333.36-5.60Q333.36-4.16 332.78-3.02Q332.20-1.88 331.18-1.08Q330.16-0.28 328.70 0.14Q327.24 0.56 325.52 0.56L325.52 0.56Q323.20 0.56 321.54-0.06Q319.88-0.68 318.78-1.70Q317.68-2.72 317.12-4.02Q316.56-5.32 316.48-6.64L316.48-6.64L319.44-7.36Q319.64-5.08 321.20-3.70Q322.76-2.32 325.36-2.32L325.36-2.32Q327.56-2.32 328.90-3.18Q330.24-4.04 330.24-5.60L330.24-5.60Q330.24-7.28 328.92-8Q327.60-8.72 324.64-8.92L324.64-8.92Q321.20-9.16 319.36-10.52Q317.52-11.88 317.52-14.48L317.52-14.48L317.52-14.72Q317.52-16.12 318.12-17.18Q318.72-18.24 319.74-18.96Q320.76-19.68 322.04-20.04Q323.32-20.40 324.72-20.40L324.72-20.40Q326.68-20.40 328.16-19.86Q329.64-19.32 330.64-18.46Q331.64-17.60 332.18-16.48Q332.72-15.36 332.88-14.24L332.88-14.24L329.92-13.52Q329.72-15.44 328.38-16.52Q327.04-17.60 324.88-17.60L324.88-17.60Q324.04-17.60 323.26-17.42Q322.48-17.24 321.88-16.88Q321.28-16.52 320.92-15.98Q320.56-15.44 320.56-14.72Z M345.64-10.32L345.64 0L342.52 0L342.52-28L345.64-28L345.64-16.24L346.12-16.24Q347.04-18.16 348.70-19.28Q350.36-20.40 352.76-20.40L352.76-20.40Q356.00-20.40 358.02-18.26Q360.04-16.12 360.04-11.84L360.04-11.84L360.04 0L356.92 0L356.92-11.20Q356.92-14.32 355.52-15.88Q354.12-17.44 351.72-17.44L351.72-17.44Q348.88-17.44 347.26-15.50Q345.64-13.56 345.64-10.32L345.64-10.32Z M387.32-10.16L387.32-9.68Q387.32-7.20 386.50-5.30Q385.68-3.40 384.32-2.10Q382.96-0.80 381.14-0.12Q379.32 0.56 377.36 0.56L377.36 0.56Q375.36 0.56 373.56-0.12Q371.76-0.80 370.40-2.10Q369.04-3.40 368.22-5.30Q367.40-7.20 367.40-9.68L367.40-9.68L367.40-10.16Q367.40-12.60 368.22-14.50Q369.04-16.40 370.42-17.72Q371.80-19.04 373.60-19.72Q375.40-20.40 377.36-20.40L377.36-20.40Q379.32-20.40 381.12-19.72Q382.92-19.04 384.30-17.72Q385.68-16.40 386.50-14.50Q387.32-12.60 387.32-10.16L387.32-10.16ZM377.36-2.40L377.36-2.40Q378.80-2.40 380.02-2.90Q381.24-3.40 382.16-4.36Q383.08-5.32 383.60-6.66Q384.12-8 384.12-9.68L384.12-9.68L384.12-10.16Q384.12-11.76 383.60-13.10Q383.08-14.44 382.16-15.40Q381.24-16.36 380.00-16.90Q378.76-17.44 377.36-17.44L377.36-17.44Q375.96-17.44 374.72-16.90Q373.48-16.36 372.56-15.40Q371.64-14.44 371.12-13.10Q370.60-11.76 370.60-10.16L370.60-10.16L370.60-9.68Q370.60-8 371.12-6.66Q371.64-5.32 372.56-4.36Q373.48-3.40 374.70-2.90Q375.92-2.40 377.36-2.40Z M397.08-3.04L397.08 8L393.96 8L393.96-19.84L397.08-19.84L397.08-16.72L397.56-16.72Q398.60-18.52 400.44-19.46Q402.28-20.40 404.44-20.40L404.44-20.40Q406.28-20.40 407.92-19.72Q409.56-19.04 410.82-17.76Q412.08-16.48 412.82-14.60Q413.56-12.72 413.56-10.32L413.56-10.32L413.56-9.52Q413.56-7.08 412.84-5.20Q412.12-3.32 410.86-2.04Q409.60-0.76 407.92-0.10Q406.24 0.56 404.36 0.56L404.36 0.56Q403.40 0.56 402.40 0.34Q401.40 0.12 400.50-0.34Q399.60-0.80 398.84-1.46Q398.08-2.12 397.56-3.04L397.56-3.04L397.08-3.04ZM403.72-2.40L403.72-2.40Q405.16-2.40 406.36-2.90Q407.56-3.40 408.46-4.32Q409.36-5.24 409.86-6.56Q410.36-7.88 410.36-9.52L410.36-9.52L410.36-10.32Q410.36-11.92 409.86-13.22Q409.36-14.52 408.46-15.46Q407.56-16.40 406.34-16.92Q405.12-17.44 403.72-17.44L403.72-17.44Q402.32-17.44 401.12-16.90Q399.92-16.36 399.02-15.40Q398.12-14.44 397.60-13.10Q397.08-11.76 397.08-10.16L397.08-10.16L397.08-9.68Q397.08-8.04 397.60-6.70Q398.12-5.36 399.02-4.40Q399.92-3.44 401.12-2.92Q402.32-2.40 403.72-2.40Z M461.24-3.12L461.24-3.36L460.76-3.36Q459.80-1.36 458.10-0.40Q456.40 0.56 454.52 0.56L454.52 0.56Q452.56 0.56 450.88-0.10Q449.20-0.76 447.94-2.06Q446.68-3.36 445.96-5.24Q445.24-7.12 445.24-9.60L445.24-9.60L445.24-10.24Q445.24-12.68 445.96-14.56Q446.68-16.44 447.94-17.74Q449.20-19.04 450.88-19.72Q452.56-20.40 454.44-20.40L454.44-20.40Q456.48-20.40 458.14-19.50Q459.80-18.60 460.76-16.72L460.76-16.72L461.24-16.72L461.24-19.84L464.36-19.84L464.36-4.08Q464.36-2.88 465.44-2.88L465.44-2.88L466.44-2.88L466.44 0L464.32 0Q462.96 0 462.10-0.88Q461.24-1.76 461.24-3.12L461.24-3.12ZM454.84-2.40L454.84-2.40Q456.24-2.40 457.42-2.92Q458.60-3.44 459.44-4.40Q460.28-5.36 460.76-6.70Q461.24-8.04 461.24-9.68L461.24-9.68L461.24-10.16Q461.24-11.76 460.76-13.10Q460.28-14.44 459.42-15.40Q458.56-16.36 457.38-16.90Q456.20-17.44 454.84-17.44L454.84-17.44Q453.44-17.44 452.28-16.92Q451.12-16.40 450.26-15.46Q449.40-14.52 448.92-13.18Q448.44-11.84 448.44-10.24L448.44-10.24L448.44-9.60Q448.44-6.20 450.22-4.30Q452.00-2.40 454.84-2.40Z M472.24-16.96L472.24-19.84L478.48-19.84L478.48-28L481.60-28L481.60-19.84L489.28-19.84L489.28-16.96L481.60-16.96L481.60-4.08Q481.60-2.88 482.68-2.88L482.68-2.88L488.32-2.88L488.32 0L481.56 0Q480.20 0 479.34-0.88Q478.48-1.76 478.48-3.12L478.48-3.12L478.48-16.96L472.24-16.96Z M540.44-18.48L540.44-19.92Q540.44-21.28 539.90-22.32Q539.36-23.36 538.44-24.04Q537.52-24.72 536.32-25.08Q535.12-25.44 533.80-25.44L533.80-25.44Q532.64-25.44 531.60-25.14Q530.56-24.84 529.74-24.28Q528.92-23.72 528.44-22.90Q527.96-22.08 527.96-21L527.96-21L527.96-20.76Q527.96-19.60 528.44-18.78Q528.92-17.96 529.86-17.38Q530.80-16.80 532.20-16.42Q533.60-16.04 535.48-15.76L535.48-15.76Q539.88-15.08 541.96-13.18Q544.04-11.28 544.04-8.08L544.04-8.08L544.04-7.60Q544.04-5.80 543.42-4.30Q542.80-2.80 541.58-1.72Q540.36-0.64 538.56-0.04Q536.76 0.56 534.40 0.56L534.40 0.56Q531.72 0.56 529.66-0.22Q527.60-1 526.22-2.38Q524.84-3.76 524.12-5.62Q523.40-7.48 523.40-9.68L523.40-9.68L523.40-10.88L526.76-10.88L526.76-9.92Q526.76-6.24 528.78-4.40Q530.80-2.56 534.40-2.56L534.40-2.56Q537.52-2.56 539.10-3.94Q540.68-5.32 540.68-7.60L540.68-7.60L540.68-7.84Q540.68-10.04 539.06-11.20Q537.44-12.36 533.80-12.88L533.80-12.88Q531.68-13.16 529.98-13.74Q528.28-14.32 527.08-15.26Q525.88-16.20 525.24-17.52Q524.60-18.84 524.60-20.64L524.60-20.64L524.60-21.12Q524.60-22.76 525.28-24.12Q525.96-25.48 527.18-26.48Q528.40-27.48 530.10-28.02Q531.80-28.56 533.84-28.56L533.84-28.56Q536.20-28.56 538.06-27.88Q539.92-27.20 541.20-26.06Q542.48-24.92 543.14-23.38Q543.80-21.84 543.80-20.16L543.80-20.16L543.80-18.48L540.44-18.48Z M554.28-10.32L554.28 0L551.16 0L551.16-28L554.28-28L554.28-16.24L554.76-16.24Q555.68-18.16 557.34-19.28Q559.00-20.40 561.40-20.40L561.40-20.40Q564.64-20.40 566.66-18.26Q568.68-16.12 568.68-11.84L568.68-11.84L568.68 0L565.56 0L565.56-11.20Q565.56-14.32 564.16-15.88Q562.76-17.44 560.36-17.44L560.36-17.44Q557.52-17.44 555.90-15.50Q554.28-13.56 554.28-10.32L554.28-10.32Z M595.96-10.16L595.96-9.68Q595.96-7.20 595.14-5.30Q594.32-3.40 592.96-2.10Q591.60-0.80 589.78-0.12Q587.96 0.56 586.00 0.56L586.00 0.56Q584.00 0.56 582.20-0.12Q580.40-0.80 579.04-2.10Q577.68-3.40 576.86-5.30Q576.04-7.20 576.04-9.68L576.04-9.68L576.04-10.16Q576.04-12.60 576.86-14.50Q577.68-16.40 579.06-17.72Q580.44-19.04 582.24-19.72Q584.04-20.40 586.00-20.40L586.00-20.40Q587.96-20.40 589.76-19.72Q591.56-19.04 592.94-17.72Q594.32-16.40 595.14-14.50Q595.96-12.60 595.96-10.16L595.96-10.16ZM586.00-2.40L586.00-2.40Q587.44-2.40 588.66-2.90Q589.88-3.40 590.80-4.36Q591.72-5.32 592.24-6.66Q592.76-8 592.76-9.68L592.76-9.68L592.76-10.16Q592.76-11.76 592.24-13.10Q591.72-14.44 590.80-15.40Q589.88-16.36 588.64-16.90Q587.40-17.44 586.00-17.44L586.00-17.44Q584.60-17.44 583.36-16.90Q582.12-16.36 581.20-15.40Q580.28-14.44 579.76-13.10Q579.24-11.76 579.24-10.16L579.24-10.16L579.24-9.68Q579.24-8 579.76-6.66Q580.28-5.32 581.20-4.36Q582.12-3.40 583.34-2.90Q584.56-2.40 586.00-2.40Z M605.72-3.04L605.72 8L602.60 8L602.60-19.84L605.72-19.84L605.72-16.72L606.20-16.72Q607.24-18.52 609.08-19.46Q610.92-20.40 613.08-20.40L613.08-20.40Q614.92-20.40 616.56-19.72Q618.20-19.04 619.46-17.76Q620.72-16.48 621.46-14.60Q622.20-12.72 622.20-10.32L622.20-10.32L622.20-9.52Q622.20-7.08 621.48-5.20Q620.76-3.32 619.50-2.04Q618.24-0.76 616.56-0.10Q614.88 0.56 613.00 0.56L613.00 0.56Q612.04 0.56 611.04 0.34Q610.04 0.12 609.14-0.34Q608.24-0.80 607.48-1.46Q606.72-2.12 606.20-3.04L606.20-3.04L605.72-3.04ZM612.36-2.40L612.36-2.40Q613.80-2.40 615.00-2.90Q616.20-3.40 617.10-4.32Q618.00-5.24 618.50-6.56Q619.00-7.88 619.00-9.52L619.00-9.52L619.00-10.32Q619.00-11.92 618.50-13.22Q618.00-14.52 617.10-15.46Q616.20-16.40 614.98-16.92Q613.76-17.44 612.36-17.44L612.36-17.44Q610.96-17.44 609.76-16.90Q608.56-16.36 607.66-15.40Q606.76-14.44 606.24-13.10Q605.72-11.76 605.72-10.16L605.72-10.16L605.72-9.68Q605.72-8.04 606.24-6.70Q606.76-5.36 607.66-4.40Q608.56-3.44 609.76-2.92Q610.96-2.40 612.36-2.40Z M647.68-8.96L631.68-8.96Q631.80-6 633.52-4.20Q635.24-2.40 638.32-2.40L638.32-2.40Q639.72-2.40 640.76-2.72Q641.80-3.04 642.54-3.60Q643.28-4.16 643.74-4.90Q644.20-5.64 644.48-6.48L644.48-6.48L647.44-5.68Q646.60-2.92 644.34-1.18Q642.08 0.56 638.24 0.56L638.24 0.56Q636.12 0.56 634.34-0.18Q632.56-0.92 631.28-2.28Q630.00-3.64 629.28-5.52Q628.56-7.40 628.56-9.68L628.56-9.68L628.56-10.64Q628.56-12.72 629.30-14.52Q630.04-16.32 631.36-17.62Q632.68-18.92 634.46-19.66Q636.24-20.40 638.32-20.40L638.32-20.40Q640.76-20.40 642.54-19.50Q644.32-18.60 645.46-17.28Q646.60-15.96 647.14-14.40Q647.68-12.84 647.68-11.52L647.68-11.52L647.68-8.96ZM638.32-17.44L638.32-17.44Q637.00-17.44 635.86-17.02Q634.72-16.60 633.86-15.84Q633.00-15.08 632.46-14.06Q631.92-13.04 631.76-11.84L631.76-11.84L644.56-11.84Q644.48-13.12 643.94-14.16Q643.40-15.20 642.54-15.92Q641.68-16.64 640.58-17.04Q639.48-17.44 638.32-17.44Z M673.76-8.96L657.76-8.96Q657.88-6 659.60-4.20Q661.32-2.40 664.40-2.40L664.40-2.40Q665.80-2.40 666.84-2.72Q667.88-3.04 668.62-3.60Q669.36-4.16 669.82-4.90Q670.28-5.64 670.56-6.48L670.56-6.48L673.52-5.68Q672.68-2.92 670.42-1.18Q668.16 0.56 664.32 0.56L664.32 0.56Q662.20 0.56 660.42-0.18Q658.64-0.92 657.36-2.28Q656.08-3.64 655.36-5.52Q654.64-7.40 654.64-9.68L654.64-9.68L654.64-10.64Q654.64-12.72 655.38-14.52Q656.12-16.32 657.44-17.62Q658.76-18.92 660.54-19.66Q662.32-20.40 664.40-20.40L664.40-20.40Q666.84-20.40 668.62-19.50Q670.40-18.60 671.54-17.28Q672.68-15.96 673.22-14.40Q673.76-12.84 673.76-11.52L673.76-11.52L673.76-8.96ZM664.40-17.44L664.40-17.44Q663.08-17.44 661.94-17.02Q660.80-16.60 659.94-15.84Q659.08-15.08 658.54-14.06Q658.00-13.04 657.84-11.84L657.84-11.84L670.64-11.84Q670.56-13.12 670.02-14.16Q669.48-15.20 668.62-15.92Q667.76-16.64 666.66-17.04Q665.56-17.44 664.40-17.44Z"/></g>
</svg>
</g><g opacity="1" transform="rotate(0 790.6214 674.5684)">
<svg width="397.7134" height="80" x="790.6214" y="674.5684" version="1.1" preserveAspectRatio="none" viewBox="1.2 -28.8 187.92000000000002 37.8">
  <g transform="matrix(1 0 0 1 0 0)" class="companyName"><path id="id-D6z1nYkh6" d="M25.56 0.20L1.88 0.20L1.88-5L24.88-4.96Q26.64-4.96 27.58-5.78Q28.52-6.60 28.52-8.44L28.52-8.44Q28.52-10.28 27.58-11.10Q26.64-11.92 24.88-11.92L24.88-11.92L10.56-11.92Q6.12-11.92 3.66-14.06Q1.20-16.20 1.20-20.36L1.20-20.36Q1.20-24.52 3.66-26.66Q6.12-28.80 10.56-28.80L10.56-28.80L33.04-28.80L33.04-23.60L11.24-23.64Q9.52-23.64 8.56-22.86Q7.60-22.08 7.60-20.36L7.60-20.36Q7.60-18.64 8.56-17.86Q9.52-17.08 11.24-17.08L11.24-17.08L25.56-17.08Q30-17.08 32.46-14.90Q34.92-12.72 34.92-8.44L34.92-8.44Q34.92-4.20 32.46-2Q30 0.20 25.56 0.20L25.56 0.20Z M44.12 0L38.32 0L38.32-28.60L44.12-28.60L44.12-20.60L56.28-20.60Q59.80-20.60 61.42-18.86Q63.04-17.12 63.04-14.28L63.04-14.28L63.04 0L57.24 0L57.24-13.60Q57.24-16 54.84-16L54.84-16L44.12-16L44.12 0Z M85.20 0.20L77.80 0.20Q72.44 0.20 69.44-2.46Q66.44-5.12 66.44-10.28L66.44-10.28Q66.44-15.48 69.44-18.14Q72.44-20.80 77.80-20.80L77.80-20.80L85.20-20.80Q90.56-20.80 93.56-18.14Q96.56-15.48 96.56-10.28L96.56-10.28Q96.56-5.12 93.56-2.46Q90.56 0.20 85.20 0.20L85.20 0.20ZM77.80-4.40L77.80-4.40L85.20-4.40Q87.80-4.40 89.18-5.84Q90.56-7.28 90.56-10.28L90.56-10.28Q90.56-13.32 89.18-14.76Q87.80-16.20 85.20-16.20L85.20-16.20L77.80-16.20Q75.20-16.20 73.82-14.76Q72.44-13.32 72.44-10.28L72.44-10.28Q72.44-7.28 73.82-5.84Q75.20-4.40 77.80-4.40Z M105.96 9L100.16 9L100.16-20.60L114.96-20.60Q120.32-20.60 123.32-17.96Q126.32-15.32 126.32-10.32L126.32-10.32Q126.32-5.28 123.32-2.64Q120.32 0 114.96 0L114.96 0L105.96 0L105.96 9ZM114.96-16L114.96-16L105.96-16L105.96-4.60L114.96-4.60Q117.56-4.60 118.94-6.02Q120.32-7.44 120.32-10.32L120.32-10.32Q120.32-13.16 118.94-14.58Q117.56-16 114.96-16Z M156.68 0.20L140.48 0.20Q135.12 0.20 132.12-2.46Q129.12-5.12 129.12-10.28L129.12-10.28Q129.12-15.48 132.12-18.14Q135.12-20.80 140.48-20.80L140.48-20.80L150.48-20.80Q154-20.80 155.86-19.14Q157.72-17.48 157.72-14.40L157.72-14.40Q157.72-8.12 150.48-8.12L150.48-8.12L135.36-8.12Q136.20-4.40 140.48-4.40L140.48-4.40L156.68-4.40L156.68 0.20ZM150.20-16.20L140.48-16.20Q136.36-16.20 135.40-12.72L135.40-12.72L150.20-12.72Q151-12.72 151.46-13.20Q151.92-13.68 151.92-14.52L151.92-14.52Q151.92-16.20 150.20-16.20L150.20-16.20Z M188.08 0.20L171.88 0.20Q166.52 0.20 163.52-2.46Q160.52-5.12 160.52-10.28L160.52-10.28Q160.52-15.48 163.52-18.14Q166.52-20.80 171.88-20.80L171.88-20.80L181.88-20.80Q185.40-20.80 187.26-19.14Q189.12-17.48 189.12-14.40L189.12-14.40Q189.12-8.12 181.88-8.12L181.88-8.12L166.76-8.12Q167.60-4.40 171.88-4.40L171.88-4.40L188.08-4.40L188.08 0.20ZM181.60-16.20L171.88-16.20Q167.76-16.20 166.80-12.72L166.80-12.72L181.60-12.72Q182.40-12.72 182.86-13.20Q183.32-13.68 183.32-14.52L183.32-14.52Q183.32-16.20 181.60-16.20L181.60-16.20Z"/></g>
</svg>
</g><g opacity="1" transform="rotate(0 746.8671 772.5684)">
<svg width="87.4969" height="6" x="746.8671" y="772.5684" version="1.1" preserveAspectRatio="none" viewBox="0 0 87.4969 6">
  <defs><rect x="0" y="0" width="87.4969" height="6" rx="0px" ry="0px" id="id-o0jQam8yd1680181416733"></rect></defs><use class="icon3 shapeStroke-str" style="stroke-width:0;" xlink:href="#id-o0jQam8yd1680181416733"></use>
</svg>
</g></svg></svg>